<?xml version="1.0" standalone="no"?>
<!DOCTYPE svg PUBLIC "-//W3C//DTD SVG 20010904//EN"
 "http://www.w3.org/TR/2001/REC-SVG-20010904/DTD/svg10.dtd">
<svg version="1.0" xmlns="http://www.w3.org/2000/svg"
 width="700.000000pt" height="700.000000pt" viewBox="0 0 700.000000 700.000000"
 preserveAspectRatio="xMidYMid meet">
<metadata>
Created by potrace 1.14, written by Peter Selinger 2001-2017
</metadata>
<g transform="translate(0.000000,700.000000) scale(0.100000,-0.100000)"
fill="#000000" stroke="none">
<path d="M900 5543 c-248 -39 -444 -138 -607 -306 -153 -156 -243 -336 -278
-550 -13 -78 -15 -264 -15 -1187 0 -1271 -3 -1224 92 -1445 98 -227 320 -440
551 -529 202 -78 -78 -71 2857 -71 2478 0 2629 1 2695 18 369 93 639 342 759
700 45 133 46 173 46 1327 0 1271 3 1224 -92 1445 -98 226 -321 441 -551 529
-201 78 83 70 -2827 72 -1433 1 -2616 0 -2630 -3z m1870 -1338 l0 -545 -275 0
-275 0 0 -685 0 -685 -550 0 -550 0 0 685 0 685 -275 0 -275 0 0 545 0 545
1100 0 1100 0 0 -545z m3660 0 l0 -545 -275 0 -275 0 0 -685 0 -685 -550 0
-550 0 0 685 0 685 -275 0 -275 0 0 545 0 545 1100 0 1100 0 0 -545z m-2812
-920 c273 -65 456 -343 399 -610 -39 -185 -161 -328 -335 -396 -79 -31 -236
-38 -318 -14 -203 58 -356 231 -384 433 -50 365 282 671 638 587z"/>
</g>
</svg>
